<svg width="800" height="600" viewBox="0 0 800 600" fill="none" xmlns="http://www.w3.org/2000/svg">
  <style>
    .svg-bg { fill: #111827; } /* Fondo oscuro */
    .svg-card-bg { fill: #1F2937; } /* Fondo de las tarjetas */
    .svg-text-primary { fill: #D1D5DB; } /* Texto principal */
    .svg-text-secondary { fill: #9CA3AF; } /* Texto secundario */
    .svg-accent { fill: #00D2B3; } /* Color primario de la marca */
    .svg-accent-light { fill: rgba(0, 210, 179, 0.2); } /* Acento más claro para fondos */
    
    @media (prefers-color-scheme: light) {
      .svg-bg { fill: #F9FAFB; }
      .svg-card-bg { fill: #FFFFFF; }
      .svg-text-primary { fill: #1F2937; }
      .svg-text-secondary { fill: #6B7280; }
    }
  </style>

  <!-- Fondo principal -->
  <rect width="800" height="600" rx="24" class="svg-bg"/>

  <!-- Contenedor del Dashboard -->
  <g transform="translate(40, 40)">
    
    <!-- Encabezado de bienvenida -->
    <text x="0" y="35" font-family="Inter, sans-serif" font-size="28" font-weight="bold" class="svg-text-primary">Dashboard</text>
    <rect x="0" y="55" width="150" height="4" rx="2" class="svg-text-secondary" opacity="0.3"/>

    <!-- Tarjetas de Estadísticas Superiores -->
    <g id="stats-cards" transform="translate(0, 90)">
      <!-- Card 1: Próxima Dosis -->
      <rect width="230" height="120" rx="16" class="svg-card-bg"/>
      <circle cx="30" cy="30" r="12" class="svg-accent-light"/>
      <path d="M30 22V30H38" stroke="#00D2B3" stroke-width="2" stroke-linecap="round" stroke-linejoin="round"/>
      <text x="18" y="75" font-family="Inter, sans-serif" font-size="24" font-weight="bold" class="svg-text-primary">08:00 PM</text>
      <text x="18" y="98" font-family="Inter, sans-serif" font-size="14" class="svg-text-secondary">Próxima Dosis</text>

      <!-- Card 2: Medicamentos Activos -->
      <rect x="245" width="230" height="120" rx="16" class="svg-card-bg"/>
      <circle cx="275" cy="30" r="12" class="svg-accent-light"/>
      <path d="M271 30H279" stroke="#00D2B3" stroke-width="2" stroke-linecap="round"/>
      <path d="M275 26V34" stroke="#00D2B3" stroke-width="2" stroke-linecap="round"/>
      <text x="263" y="75" font-family="Inter, sans-serif" font-size="24" font-weight="bold" class="svg-text-primary">5</text>
      <text x="263" y="98" font-family="Inter, sans-serif" font-size="14" class="svg-text-secondary">Medicamentos Activos</text>

      <!-- Card 3: Adherencia -->
      <rect x="490" width="230" height="120" rx="16" class="svg-card-bg"/>
      <circle cx="520" cy="30" r="12" class="svg-accent-light"/>
      <path d="M515 32L519 36L525 26" stroke="#00D2B3" stroke-width="2" stroke-linecap="round" stroke-linejoin="round"/>
      <text x="508" y="75" font-family="Inter, sans-serif" font-size="24" font-weight="bold" class="svg-text-primary">98%</text>
      <text x="508" y="98" font-family="Inter, sans-serif" font-size="14" class="svg-text-secondary">Adherencia (7d)</text>
    </g>

    <!-- Tarjeta Grande Inferior: Recordatorios de Hoy -->
    <g id="main-card" transform="translate(0, 230)">
      <rect width="720" height="290" rx="16" class="svg-card-bg"/>
      
      <!-- Encabezado de la tarjeta -->
      <text x="25" y="40" font-family="Inter, sans-serif" font-size="18" font-weight="600" class="svg-text-primary">Recordatorios de Hoy</text>
      <line x1="25" y1="60" x2="695" y2="60" stroke="#374151" stroke-width="1"/>

      <!-- Lista de Recordatorios (items de ejemplo) -->
      <g id="reminder-list" transform="translate(25, 85)">
        <!-- Item 1 -->
        <circle cx="12" cy="12" r="12" class="svg-accent-light"/>
        <path d="M9.5 12.5L11.5 14.5L14.5 9.5" stroke="#00D2B3" stroke-width="1.5" stroke-linecap="round" stroke-linejoin="round"/>
        <text x="40" y="12" font-family="Inter, sans-serif" font-size="14" font-weight="500" class="svg-text-primary">Ibuprofeno</text>
        <text x="40" y="28" font-family="Inter, sans-serif" font-size="12" class="svg-text-secondary">200mg</text>
        <text x="640" y="20" font-family="Inter, sans-serif" font-size="14" font-weight="500" class="svg-text-primary" text-anchor="end">08:00 AM</text>

        <!-- Item 2 -->
        <g transform="translate(0, 50)">
          <circle cx="12" cy="12" r="12" class="svg-accent-light"/>
          <path d="M9.5 12.5L11.5 14.5L14.5 9.5" stroke="#00D2B3" stroke-width="1.5" stroke-linecap="round" stroke-linejoin="round"/>
          <text x="40" y="12" font-family="Inter, sans-serif" font-size="14" font-weight="500" class="svg-text-primary">Paracetamol</text>
          <text x="40" y="28" font-family="Inter, sans-serif" font-size="12" class="svg-text-secondary">500mg</text>
          <text x="640" y="20" font-family="Inter, sans-serif" font-size="14" font-weight="500" class="svg-text-primary" text-anchor="end">02:00 PM</text>
        </g>

        <!-- Item 3 (Placeholder) -->
        <g transform="translate(0, 100)">
          <circle cx="12" cy="12" r="12" class="svg-text-secondary" opacity="0.1"/>
          <rect x="40" y="6" width="120" height="12" rx="4" class="svg-text-secondary" opacity="0.3"/>
          <rect x="40" y="24" width="80" height="8" rx="3" class="svg-text-secondary" opacity="0.2"/>
          <rect x="580" y="12" width="60" height="12" rx="4" class="svg-text-secondary" opacity="0.3"/>
        </g>

         <!-- Item 4 (Placeholder) -->
        <g transform="translate(0, 150)">
          <circle cx="12" cy="12" r="12" class="svg-text-secondary" opacity="0.1"/>
          <rect x="40" y="6" width="150" height="12" rx="4" class="svg-text-secondary" opacity="0.3"/>
          <rect x="40" y="24" width="100" height="8" rx="3" class="svg-text-secondary" opacity="0.2"/>
          <rect x="580" y="12" width="60" height="12" rx="4" class="svg-text-secondary" opacity="0.3"/>
        </g>
      </g>
    </g>
  </g>
</svg>
